<svg width="251" height="42" viewBox="0 0 251 42" fill="none" xmlns="http://www.w3.org/2000/svg">
<path d="M23.2 11.2C22.4267 9.57333 21.3067 8.32 19.84 7.44C18.3733 6.53333 16.6667 6.08 14.72 6.08C12.7733 6.08 11.0133 6.53333 9.44 7.44C7.89333 8.32 6.66667 9.6 5.76 11.28C4.88 12.9333 4.44 14.8533 4.44 17.04C4.44 19.2267 4.88 21.1467 5.76 22.8C6.66667 24.4533 7.89333 25.7333 9.44 26.64C11.0133 27.52 12.7733 27.96 14.72 27.96C17.44 27.96 19.68 27.1467 21.44 25.52C23.2 23.8933 24.2267 21.6933 24.52 18.92H13.4V15.96H28.4V18.76C28.1867 21.0533 27.4667 23.16 26.24 25.08C25.0133 26.9733 23.4 28.48 21.4 29.6C19.4 30.6933 17.1733 31.24 14.72 31.24C12.1333 31.24 9.77333 30.64 7.64 29.44C5.50667 28.2133 3.81333 26.52 2.56 24.36C1.33333 22.2 0.72 19.76 0.72 17.04C0.72 14.32 1.33333 11.88 2.56 9.72C3.81333 7.53333 5.50667 5.84 7.64 4.64C9.77333 3.41333 12.1333 2.8 14.72 2.8C17.68 2.8 20.2933 3.53333 22.56 5C24.8533 6.46667 26.52 8.53333 27.56 11.2H23.2ZM31.8528 19.96C31.8528 17.72 32.3061 15.76 33.2128 14.08C34.1195 12.3733 35.3595 11.0533 36.9328 10.12C38.5328 9.18667 40.3061 8.72 42.2528 8.72C44.1728 8.72 45.8395 9.13333 47.2528 9.96C48.6661 10.7867 49.7195 11.8267 50.4128 13.08V9.08H54.0928V31H50.4128V26.92C49.6928 28.2 48.6128 29.2667 47.1728 30.12C45.7595 30.9467 44.1061 31.36 42.2128 31.36C40.2661 31.36 38.5061 30.88 36.9328 29.92C35.3595 28.96 34.1195 27.6133 33.2128 25.88C32.3061 24.1467 31.8528 22.1733 31.8528 19.96ZM50.4128 20C50.4128 18.3467 50.0795 16.9067 49.4128 15.68C48.7461 14.4533 47.8395 13.52 46.6928 12.88C45.5728 12.2133 44.3328 11.88 42.9728 11.88C41.6128 11.88 40.3728 12.2 39.2528 12.84C38.1328 13.48 37.2395 14.4133 36.5728 15.64C35.9061 16.8667 35.5728 18.3067 35.5728 19.96C35.5728 21.64 35.9061 23.1067 36.5728 24.36C37.2395 25.5867 38.1328 26.5333 39.2528 27.2C40.3728 27.84 41.6128 28.16 42.9728 28.16C44.3328 28.16 45.5728 27.84 46.6928 27.2C47.8395 26.5333 48.7461 25.5867 49.4128 24.36C50.0795 23.1067 50.4128 21.6533 50.4128 20ZM86.6041 8.68C88.3107 8.68 89.8307 9.04 91.1641 9.76C92.4974 10.4533 93.5507 11.5067 94.3241 12.92C95.0974 14.3333 95.4841 16.0533 95.4841 18.08V31H91.8841V18.6C91.8841 16.4133 91.3374 14.7467 90.2441 13.6C89.1774 12.4267 87.7241 11.84 85.8841 11.84C83.9907 11.84 82.4841 12.4533 81.3641 13.68C80.2441 14.88 79.6841 16.6267 79.6841 18.92V31H76.0841V18.6C76.0841 16.4133 75.5374 14.7467 74.4441 13.6C73.3774 12.4267 71.9241 11.84 70.0841 11.84C68.1907 11.84 66.6841 12.4533 65.5641 13.68C64.4441 14.88 63.8841 16.6267 63.8841 18.92V31H60.2441V9.08H63.8841V12.24C64.6041 11.0933 65.5641 10.2133 66.7641 9.6C67.9907 8.98667 69.3374 8.68 70.8041 8.68C72.6441 8.68 74.2707 9.09333 75.6841 9.92C77.0974 10.7467 78.1507 11.96 78.8441 13.56C79.4574 12.0133 80.4707 10.8133 81.8841 9.96C83.2974 9.10667 84.8707 8.68 86.6041 8.68ZM103.335 5.52C102.642 5.52 102.055 5.28 101.575 4.8C101.095 4.32 100.855 3.73333 100.855 3.04C100.855 2.34667 101.095 1.76 101.575 1.28C102.055 0.799999 102.642 0.559999 103.335 0.559999C104.002 0.559999 104.562 0.799999 105.015 1.28C105.495 1.76 105.735 2.34667 105.735 3.04C105.735 3.73333 105.495 4.32 105.015 4.8C104.562 5.28 104.002 5.52 103.335 5.52ZM105.095 9.08V31H101.455V9.08H105.095ZM121.979 8.68C124.645 8.68 126.805 9.49333 128.459 11.12C130.112 12.72 130.939 15.04 130.939 18.08V31H127.339V18.6C127.339 16.4133 126.792 14.7467 125.699 13.6C124.605 12.4267 123.112 11.84 121.219 11.84C119.299 11.84 117.765 12.44 116.619 13.64C115.499 14.84 114.939 16.5867 114.939 18.88V31H111.299V9.08H114.939V12.2C115.659 11.08 116.632 10.2133 117.859 9.6C119.112 8.98667 120.485 8.68 121.979 8.68ZM145.925 8.72C147.818 8.72 149.471 9.13333 150.885 9.96C152.325 10.7867 153.391 11.8267 154.085 13.08V9.08H157.765V31.48C157.765 33.48 157.338 35.2533 156.485 36.8C155.631 38.3733 154.405 39.6 152.805 40.48C151.231 41.36 149.391 41.8 147.285 41.8C144.405 41.8 142.005 41.12 140.085 39.76C138.165 38.4 137.031 36.5467 136.685 34.2H140.285C140.685 35.5333 141.511 36.6 142.765 37.4C144.018 38.2267 145.525 38.64 147.285 38.64C149.285 38.64 150.911 38.0133 152.165 36.76C153.445 35.5067 154.085 33.7467 154.085 31.48V26.88C153.365 28.16 152.298 29.2267 150.885 30.08C149.471 30.9333 147.818 31.36 145.925 31.36C143.978 31.36 142.205 30.88 140.605 29.92C139.031 28.96 137.791 27.6133 136.885 25.88C135.978 24.1467 135.525 22.1733 135.525 19.96C135.525 17.72 135.978 15.76 136.885 14.08C137.791 12.3733 139.031 11.0533 140.605 10.12C142.205 9.18667 143.978 8.72 145.925 8.72ZM154.085 20C154.085 18.3467 153.751 16.9067 153.085 15.68C152.418 14.4533 151.511 13.52 150.365 12.88C149.245 12.2133 148.005 11.88 146.645 11.88C145.285 11.88 144.045 12.2 142.925 12.84C141.805 13.48 140.911 14.4133 140.245 15.64C139.578 16.8667 139.245 18.3067 139.245 19.96C139.245 21.64 139.578 23.1067 140.245 24.36C140.911 25.5867 141.805 26.5333 142.925 27.2C144.045 27.84 145.285 28.16 146.645 28.16C148.005 28.16 149.245 27.84 150.365 27.2C151.511 26.5333 152.418 25.5867 153.085 24.36C153.751 23.1067 154.085 21.6533 154.085 20ZM196.06 3.12V31H192.42V18.36H178.22V31H174.58V3.12H178.22V15.36H192.42V3.12H196.06ZM221.715 9.08V31H218.075V27.76C217.382 28.88 216.409 29.76 215.155 30.4C213.929 31.0133 212.569 31.32 211.075 31.32C209.369 31.32 207.835 30.9733 206.475 30.28C205.115 29.56 204.035 28.4933 203.235 27.08C202.462 25.6667 202.075 23.9467 202.075 21.92V9.08H205.675V21.44C205.675 23.6 206.222 25.2667 207.315 26.44C208.409 27.5867 209.902 28.16 211.795 28.16C213.742 28.16 215.275 27.56 216.395 26.36C217.515 25.16 218.075 23.4133 218.075 21.12V9.08H221.715ZM231.501 13.16C232.248 11.8533 233.341 10.7867 234.781 9.96C236.221 9.13333 237.861 8.72 239.701 8.72C241.675 8.72 243.448 9.18667 245.021 10.12C246.595 11.0533 247.835 12.3733 248.741 14.08C249.648 15.76 250.101 17.72 250.101 19.96C250.101 22.1733 249.648 24.1467 248.741 25.88C247.835 27.6133 246.581 28.96 244.981 29.92C243.408 30.88 241.648 31.36 239.701 31.36C237.808 31.36 236.141 30.9467 234.701 30.12C233.288 29.2933 232.221 28.24 231.501 26.96V31H227.861V1.4H231.501V13.16ZM246.381 19.96C246.381 18.3067 246.048 16.8667 245.381 15.64C244.715 14.4133 243.808 13.48 242.661 12.84C241.541 12.2 240.301 11.88 238.941 11.88C237.608 11.88 236.368 12.2133 235.221 12.88C234.101 13.52 233.195 14.4667 232.501 15.72C231.835 16.9467 231.501 18.3733 231.501 20C231.501 21.6533 231.835 23.1067 232.501 24.36C233.195 25.5867 234.101 26.5333 235.221 27.2C236.368 27.84 237.608 28.16 238.941 28.16C240.301 28.16 241.541 27.84 242.661 27.2C243.808 26.5333 244.715 25.5867 245.381 24.36C246.048 23.1067 246.381 21.64 246.381 19.96Z" fill="#FF0000"/>
<path d="M23.2 11.2L22.2969 11.6294L22.5682 12.2H23.2V11.2ZM19.84 7.44L19.3141 8.29067L19.3255 8.29749L19.84 7.44ZM9.44 7.44L9.93453 8.30918L9.9393 8.30643L9.44 7.44ZM5.76 11.28L4.87996 10.8051L4.87725 10.8101L5.76 11.28ZM5.76 22.8L4.87719 23.2699L4.88319 23.2808L5.76 22.8ZM9.44 26.64L8.93428 27.5027L8.94301 27.5078L8.95185 27.5128L9.44 26.64ZM21.44 25.52L22.1187 26.2544L22.1187 26.2544L21.44 25.52ZM24.52 18.92L25.5145 19.0252L25.6313 17.92H24.52V18.92ZM13.4 18.92H12.4V19.92H13.4V18.92ZM13.4 15.96V14.96H12.4V15.96H13.4ZM28.4 15.96H29.4V14.96H28.4V15.96ZM28.4 18.76L29.3957 18.8526L29.4 18.8064V18.76H28.4ZM26.24 25.08L27.0793 25.6238L27.0827 25.6184L26.24 25.08ZM21.4 29.6L21.8797 30.4775L21.8886 30.4725L21.4 29.6ZM7.64 29.44L7.14151 30.3069L7.14974 30.3116L7.64 29.44ZM2.56 24.36L1.6904 24.8538L1.69506 24.8619L2.56 24.36ZM2.56 9.72L1.6924 9.22272L1.69044 9.22617L2.56 9.72ZM7.64 4.64L8.13028 5.51161L8.13847 5.5069L7.64 4.64ZM22.56 5L22.0167 5.83958L22.0212 5.84245L22.56 5ZM27.56 11.2V12.2H29.0234L28.4917 10.8367L27.56 11.2ZM24.1031 10.7706C23.25 8.97605 21.9992 7.56935 20.3545 6.58251L19.3255 8.29749C20.6141 9.07064 21.6034 10.1706 22.2969 11.6294L24.1031 10.7706ZM20.3658 6.5894C18.7215 5.5729 16.8278 5.08 14.72 5.08V7.08C16.5055 7.08 18.0252 7.49376 19.3142 8.29059L20.3658 6.5894ZM14.72 5.08C12.6111 5.08 10.6768 5.5731 8.9407 6.57357L9.9393 8.30643C11.3499 7.49357 12.9355 7.08 14.72 7.08V5.08ZM8.94548 6.57083C7.22397 7.55031 5.86891 8.97264 4.87998 10.8051L6.64002 11.7549C7.46443 10.2274 8.56269 9.08969 9.93452 8.30916L8.94548 6.57083ZM4.87725 10.8101C3.9083 12.6306 3.44 14.717 3.44 17.04H5.44C5.44 14.9897 5.8517 13.236 6.64275 11.7498L4.87725 10.8101ZM3.44 17.04C3.44 19.363 3.9083 21.4494 4.87725 23.2698L6.64275 22.3302C5.8517 20.8439 5.44 19.0903 5.44 17.04H3.44ZM4.88319 23.2808C5.87207 25.0841 7.22347 26.4998 8.93428 27.5027L9.94572 25.7773C8.5632 24.9669 7.46126 23.8226 6.63681 22.3192L4.88319 23.2808ZM8.95185 27.5128C10.6862 28.4828 12.6165 28.96 14.72 28.96V26.96C12.9302 26.96 11.3405 26.5572 9.92815 25.7672L8.95185 27.5128ZM14.72 28.96C17.6551 28.96 20.1488 28.0751 22.1187 26.2544L20.7613 24.7856C19.2112 26.2182 17.2249 26.96 14.72 26.96V28.96ZM22.1187 26.2544C24.0854 24.4367 25.2 21.9978 25.5145 19.0252L23.5255 18.8148C23.2533 21.3889 22.3146 23.3499 20.7613 24.7856L22.1187 26.2544ZM24.52 17.92H13.4V19.92H24.52V17.92ZM14.4 18.92V15.96H12.4V18.92H14.4ZM13.4 16.96H28.4V14.96H13.4V16.96ZM27.4 15.96V18.76H29.4V15.96H27.4ZM27.4043 18.6674C27.2056 20.8039 26.5372 22.7574 25.3973 24.5416L27.0827 25.6184C28.3961 23.5626 29.1678 21.3028 29.3957 18.8526L27.4043 18.6674ZM25.4007 24.5363C24.264 26.2909 22.7719 27.6856 20.9114 28.7275L21.8886 30.4725C24.0281 29.2744 25.7627 27.6558 27.0793 25.6237L25.4007 24.5363ZM20.9203 28.7226C19.0786 29.7294 17.0189 30.24 14.72 30.24V32.24C17.3278 32.24 19.7214 31.6573 21.8797 30.4774L20.9203 28.7226ZM14.72 30.24C12.295 30.24 10.1053 29.6794 8.13026 28.5684L7.14974 30.3116C9.44132 31.6006 11.9717 32.24 14.72 32.24V30.24ZM8.13847 28.5731C6.15954 27.4352 4.59161 25.8688 3.42494 23.8581L1.69506 24.8619C3.03506 27.1712 4.8538 28.9915 7.14153 30.3069L8.13847 28.5731ZM3.42956 23.8662C2.29636 21.8708 1.72 19.6038 1.72 17.04H-0.28C-0.28 19.9162 0.370307 22.5292 1.69044 24.8538L3.42956 23.8662ZM1.72 17.04C1.72 14.4762 2.29636 12.2092 3.42956 10.2138L1.69044 9.22617C0.370307 11.5508 -0.28 14.1638 -0.28 17.04H1.72ZM3.42759 10.2173C4.59401 8.18225 6.15899 6.62041 8.13026 5.51157L7.14974 3.76842C4.85434 5.05958 3.03266 6.88441 1.69241 9.22272L3.42759 10.2173ZM8.13847 5.5069C10.1123 4.37196 12.299 3.8 14.72 3.8V1.8C11.9677 1.8 9.43438 2.4547 7.14153 3.77309L8.13847 5.5069ZM14.72 3.8C17.5065 3.8 19.9274 4.48764 22.0168 5.83957L23.1033 4.16043C20.6593 2.57903 17.8535 1.8 14.72 1.8V3.8ZM22.0212 5.84245C24.1266 7.18894 25.6611 9.08313 26.6283 11.5633L28.4917 10.8367C27.3789 7.98353 25.58 5.74439 23.0988 4.15755L22.0212 5.84245ZM27.56 10.2H23.2V12.2H27.56V10.2ZM33.2128 14.08L34.0929 14.5549L34.0959 14.5492L33.2128 14.08ZM36.9328 10.12L36.4289 9.2562L36.4226 9.25994L36.9328 10.12ZM47.2528 9.96L46.7479 10.8232L46.7479 10.8232L47.2528 9.96ZM50.4128 13.08L49.5378 13.5641L51.4128 13.08H50.4128ZM50.4128 9.08V8.08H49.4128V9.08H50.4128ZM54.0928 9.08H55.0928V8.08H54.0928V9.08ZM54.0928 31V32H55.0928V31H54.0928ZM50.4128 31H49.4128V32H50.4128V31ZM50.4128 26.92H51.4128V23.1025L49.5412 26.4297L50.4128 26.92ZM47.1728 30.12L47.6777 30.9832L47.6826 30.9803L47.1728 30.12ZM36.9328 29.92L36.4119 30.7736L36.4119 30.7736L36.9328 29.92ZM33.2128 25.88L34.0989 25.4165L34.0989 25.4165L33.2128 25.88ZM46.6928 12.88L46.1813 13.7393L46.1933 13.7464L46.2054 13.7532L46.6928 12.88ZM39.2528 12.84L38.7567 11.9718L38.7567 11.9718L39.2528 12.84ZM36.5728 15.64L37.4514 16.1175L37.4514 16.1175L36.5728 15.64ZM36.5728 24.36L35.6899 24.8296L35.6942 24.8375L36.5728 24.36ZM39.2528 27.2L38.7413 28.0593L38.749 28.0638L38.7567 28.0682L39.2528 27.2ZM46.6928 27.2L47.189 28.0683L47.1954 28.0645L46.6928 27.2ZM49.4128 24.36L50.2915 24.8375L50.2957 24.8296L49.4128 24.36ZM32.8528 19.96C32.8528 17.857 33.2776 16.0656 34.0928 14.5549L32.3328 13.6051C31.3347 15.4544 30.8528 17.583 30.8528 19.96H32.8528ZM34.0959 14.5492C34.9216 12.995 36.0365 11.8144 37.443 10.9801L36.4226 9.25994C34.6824 10.2923 33.3174 11.7517 32.3297 13.6108L34.0959 14.5492ZM37.4367 10.9838C38.8758 10.1443 40.4738 9.72 42.2528 9.72V7.72C40.1385 7.72 38.1898 8.22906 36.4289 9.25622L37.4367 10.9838ZM42.2528 9.72C44.0263 9.72 45.5124 10.1005 46.7479 10.8232L47.7577 9.09681C46.1665 8.16613 44.3193 7.72 42.2528 7.72V9.72ZM46.7479 10.8232C48.0287 11.5723 48.9434 12.4895 49.5378 13.5641L51.2878 12.5959C50.4956 11.1638 49.3036 10.001 47.7577 9.09681L46.7479 10.8232ZM51.4128 13.08V9.08H49.4128V13.08H51.4128ZM50.4128 10.08H54.0928V8.08H50.4128V10.08ZM53.0928 9.08V31H55.0928V9.08H53.0928ZM54.0928 30H50.4128V32H54.0928V30ZM51.4128 31V26.92H49.4128V31H51.4128ZM49.5412 26.4297C48.9187 27.5364 47.9735 28.4831 46.663 29.2597L47.6826 30.9803C49.2521 30.0502 50.4669 28.8636 51.2844 27.4103L49.5412 26.4297ZM46.6679 29.2568C45.4303 29.9807 43.9568 30.36 42.2128 30.36V32.36C44.2555 32.36 46.0886 31.9127 47.6777 30.9832L46.6679 29.2568ZM42.2128 30.36C40.4391 30.36 38.8612 29.9252 37.4537 29.0664L36.4119 30.7736C38.1511 31.8348 40.0932 32.36 42.2128 32.36V30.36ZM37.4537 29.0664C36.0448 28.2067 34.9269 26.9993 34.0989 25.4165L32.3267 26.3435C33.3121 28.2273 34.6741 29.7133 36.4119 30.7736L37.4537 29.0664ZM34.0989 25.4165C33.2764 23.8441 32.8528 22.0334 32.8528 19.96H30.8528C30.8528 22.3133 31.3359 24.4493 32.3267 26.3435L34.0989 25.4165ZM51.4128 20C51.4128 18.2106 51.0512 16.6005 50.2914 15.2025L48.5342 16.1575C49.1077 17.2128 49.4128 18.4827 49.4128 20H51.4128ZM50.2914 15.2025C49.5404 13.8205 48.5027 12.7449 47.1802 12.0068L46.2054 13.7532C47.1763 14.2951 47.9519 15.0861 48.5342 16.1575L50.2914 15.2025ZM47.2043 12.0207C45.9227 11.2579 44.5047 10.88 42.9728 10.88V12.88C44.1609 12.88 45.2229 13.1688 46.1813 13.7393L47.2043 12.0207ZM42.9728 10.88C41.4486 10.88 40.0361 11.2407 38.7567 11.9718L39.749 13.7082C40.7096 13.1593 41.777 12.88 42.9728 12.88V10.88ZM38.7567 11.9718C37.4621 12.7115 36.442 13.7865 35.6942 15.1625L37.4514 16.1175C38.037 15.0401 38.8035 14.2485 39.749 13.7082L38.7567 11.9718ZM35.6942 15.1625C34.9344 16.5605 34.5728 18.1706 34.5728 19.96H36.5728C36.5728 18.4427 36.8779 17.1728 37.4514 16.1175L35.6942 15.1625ZM34.5728 19.96C34.5728 21.7738 34.9334 23.4073 35.6899 24.8296L37.4557 23.8904C36.8789 22.806 36.5728 21.5062 36.5728 19.96H34.5728ZM35.6942 24.8375C36.4404 26.2105 37.4558 27.2941 38.7413 28.0593L39.7643 26.3407C38.8098 25.7725 38.0386 24.9629 37.4514 23.8825L35.6942 24.8375ZM38.7567 28.0682C40.0361 28.7993 41.4486 29.16 42.9728 29.16V27.16C41.777 27.16 40.7096 26.8807 39.749 26.3318L38.7567 28.0682ZM42.9728 29.16C44.497 29.16 45.9096 28.7993 47.189 28.0682L46.1967 26.3318C45.2361 26.8807 44.1686 27.16 42.9728 27.16V29.16ZM47.1954 28.0645C48.509 27.3008 49.5421 26.2164 50.2914 24.8375L48.5342 23.8825C47.9502 24.957 47.17 25.7659 46.1902 26.3355L47.1954 28.0645ZM50.2957 24.8296C51.051 23.4096 51.4128 21.79 51.4128 20H49.4128C49.4128 21.5166 49.1079 22.8038 48.5299 23.8904L50.2957 24.8296ZM91.1641 9.76L90.6889 10.6399L90.6958 10.6436L90.7027 10.6472L91.1641 9.76ZM94.3241 12.92L93.4468 13.4L93.4468 13.4L94.3241 12.92ZM95.4841 31V32H96.4841V31H95.4841ZM91.8841 31H90.8841V32H91.8841V31ZM90.2441 13.6L89.5041 14.2727L89.5121 14.2815L89.5203 14.2901L90.2441 13.6ZM81.3641 13.68L82.0952 14.3624L82.1025 14.3543L81.3641 13.68ZM79.6841 31V32H80.6841V31H79.6841ZM76.0841 31H75.0841V32H76.0841V31ZM74.4441 13.6L73.7041 14.2727L73.7121 14.2815L73.7203 14.2901L74.4441 13.6ZM65.5641 13.68L66.2952 14.3624L66.3025 14.3543L65.5641 13.68ZM63.8841 31V32H64.8841V31H63.8841ZM60.2441 31H59.2441V32H60.2441V31ZM60.2441 9.08V8.08H59.2441V9.08H60.2441ZM63.8841 9.08H64.8841V8.08H63.8841V9.08ZM63.8841 12.24H62.8841V15.7131L64.731 12.7718L63.8841 12.24ZM66.7641 9.6L66.3168 8.70554L66.309 8.70956L66.7641 9.6ZM75.6841 9.92L75.1792 10.7832L75.1792 10.7832L75.6841 9.92ZM78.8441 13.56L77.9265 13.9576L78.885 16.1695L79.7736 13.9286L78.8441 13.56ZM81.8841 9.96L82.4009 10.8161L82.4009 10.8161L81.8841 9.96ZM86.6041 9.68C88.1661 9.68 89.5192 10.0082 90.6889 10.6399L91.6392 8.88009C90.1423 8.07175 88.4554 7.68 86.6041 7.68V9.68ZM90.7027 10.6472C91.8473 11.2424 92.7615 12.1475 93.4468 13.4L95.2013 12.44C94.34 10.8658 93.1475 9.66429 91.6254 8.87278L90.7027 10.6472ZM93.4468 13.4C94.1214 14.6329 94.4841 16.1786 94.4841 18.08H96.4841C96.4841 15.928 96.0734 14.0337 95.2013 12.44L93.4468 13.4ZM94.4841 18.08V31H96.4841V18.08H94.4841ZM95.4841 30H91.8841V32H95.4841V30ZM92.8841 31V18.6H90.8841V31H92.8841ZM92.8841 18.6C92.8841 16.2553 92.2967 14.3036 90.9678 12.9099L89.5203 14.2901C90.3781 15.1897 90.8841 16.5714 90.8841 18.6H92.8841ZM90.984 12.9273C89.6968 11.5114 87.9562 10.84 85.8841 10.84V12.84C87.4919 12.84 88.658 13.3419 89.5041 14.2727L90.984 12.9273ZM85.8841 10.84C83.7531 10.84 81.9624 11.5416 80.6256 13.0057L82.1025 14.3543C83.0057 13.3651 84.2284 12.84 85.8841 12.84V10.84ZM80.633 12.9977C79.2817 14.4455 78.6841 16.4745 78.6841 18.92H80.6841C80.6841 16.7788 81.2064 15.3145 82.0951 14.3623L80.633 12.9977ZM78.6841 18.92V31H80.6841V18.92H78.6841ZM79.6841 30H76.0841V32H79.6841V30ZM77.0841 31V18.6H75.0841V31H77.0841ZM77.0841 18.6C77.0841 16.2553 76.4967 14.3036 75.1678 12.9099L73.7203 14.2901C74.5781 15.1897 75.0841 16.5714 75.0841 18.6H77.0841ZM75.184 12.9273C73.8968 11.5114 72.1562 10.84 70.0841 10.84V12.84C71.6919 12.84 72.858 13.3419 73.7041 14.2727L75.184 12.9273ZM70.0841 10.84C67.9531 10.84 66.1624 11.5416 64.8256 13.0057L66.3025 14.3543C67.2057 13.3651 68.4284 12.84 70.0841 12.84V10.84ZM64.833 12.9977C63.4817 14.4455 62.8841 16.4745 62.8841 18.92H64.8841C64.8841 16.7788 65.4064 15.3145 66.2951 14.3623L64.833 12.9977ZM62.8841 18.92V31H64.8841V18.92H62.8841ZM63.8841 30H60.2441V32H63.8841V30ZM61.2441 31V9.08H59.2441V31H61.2441ZM60.2441 10.08H63.8841V8.08H60.2441V10.08ZM62.8841 9.08V12.24H64.8841V9.08H62.8841ZM64.731 12.7718C65.3556 11.777 66.1805 11.0213 67.2192 10.4904L66.309 8.70956C64.9476 9.40536 63.8526 10.4096 63.0372 11.7082L64.731 12.7718ZM67.2113 10.4944C68.2895 9.95529 69.4816 9.68 70.8041 9.68V7.68C69.1932 7.68 67.6919 8.01804 66.3168 8.70557L67.2113 10.4944ZM70.8041 9.68C72.4891 9.68 73.9373 10.0568 75.1792 10.7832L76.1889 9.05681C74.6042 8.12986 72.7991 7.68 70.8041 7.68V9.68ZM75.1792 10.7832C76.3967 11.4953 77.3119 12.5393 77.9265 13.9576L79.7616 13.1624C78.9896 11.3807 77.7981 9.99803 76.1889 9.05681L75.1792 10.7832ZM79.7736 13.9286C80.3071 12.5835 81.1763 11.5554 82.4009 10.8161L81.3672 9.10393C79.7651 10.0712 78.6077 11.4432 77.9145 13.1914L79.7736 13.9286ZM82.4009 10.8161C83.6504 10.0617 85.0434 9.68 86.6041 9.68V7.68C84.698 7.68 82.9444 8.15165 81.3672 9.10393L82.4009 10.8161ZM101.575 4.8L102.282 4.09289L102.282 4.09289L101.575 4.8ZM101.575 1.28L102.282 1.98711L102.282 1.98711L101.575 1.28ZM105.015 1.28L104.288 1.96662L104.298 1.97701L104.308 1.98711L105.015 1.28ZM105.015 4.8L104.308 4.09289L104.298 4.10299L104.288 4.11338L105.015 4.8ZM105.095 9.08H106.095V8.08H105.095V9.08ZM105.095 31V32H106.095V31H105.095ZM101.455 31H100.455V32H101.455V31ZM101.455 9.08V8.08H100.455V9.08H101.455ZM103.335 4.52C102.901 4.52 102.57 4.38091 102.282 4.09289L100.868 5.50711C101.54 6.17909 102.383 6.52 103.335 6.52V4.52ZM102.282 4.09289C101.994 3.80487 101.855 3.47447 101.855 3.04H99.855C99.855 3.99219 100.196 4.83512 100.868 5.50711L102.282 4.09289ZM101.855 3.04C101.855 2.60553 101.994 2.27512 102.282 1.98711L100.868 0.572892C100.196 1.24487 99.855 2.0878 99.855 3.04H101.855ZM102.282 1.98711C102.57 1.69909 102.901 1.56 103.335 1.56V-0.440001C102.383 -0.440001 101.54 -0.0990909 100.868 0.572892L102.282 1.98711ZM103.335 1.56C103.73 1.56 104.026 1.68884 104.288 1.96662L105.742 0.593375C105.098 -0.0888469 104.274 -0.440001 103.335 -0.440001V1.56ZM104.308 1.98711C104.596 2.27512 104.735 2.60553 104.735 3.04H106.735C106.735 2.0878 106.394 1.24487 105.722 0.572892L104.308 1.98711ZM104.735 3.04C104.735 3.47447 104.596 3.80487 104.308 4.09289L105.722 5.50711C106.394 4.83512 106.735 3.99219 106.735 3.04H104.735ZM104.288 4.11338C104.026 4.39115 103.73 4.52 103.335 4.52V6.52C104.274 6.52 105.098 6.16884 105.742 5.48662L104.288 4.11338ZM104.095 9.08V31H106.095V9.08H104.095ZM105.095 30H101.455V32H105.095V30ZM102.455 31V9.08H100.455V31H102.455ZM101.455 10.08H105.095V8.08H101.455V10.08ZM128.459 11.12L127.757 11.8329L127.763 11.8386L128.459 11.12ZM130.939 31V32H131.939V31H130.939ZM127.339 31H126.339V32H127.339V31ZM125.699 13.6L124.967 14.2818L124.975 14.2901L125.699 13.6ZM116.619 13.64L115.896 12.9491L115.888 12.9577L116.619 13.64ZM114.939 31V32H115.939V31H114.939ZM111.299 31H110.299V32H111.299V31ZM111.299 9.08V8.08H110.299V9.08H111.299ZM114.939 9.08H115.939V8.08H114.939V9.08ZM114.939 12.2H113.939V15.6048L115.78 12.7408L114.939 12.2ZM117.859 9.6L117.419 8.70175L117.412 8.70557L117.859 9.6ZM121.979 9.68C124.426 9.68 126.319 10.418 127.757 11.8328L129.16 10.4072C127.291 8.56867 124.865 7.68 121.979 7.68V9.68ZM127.763 11.8386C129.165 13.1953 129.939 15.2202 129.939 18.08H131.939C131.939 14.8598 131.059 12.2447 129.154 10.4014L127.763 11.8386ZM129.939 18.08V31H131.939V18.08H129.939ZM130.939 30H127.339V32H130.939V30ZM128.339 31V18.6H126.339V31H128.339ZM128.339 18.6C128.339 16.2553 127.751 14.3036 126.422 12.9099L124.975 14.2901C125.833 15.1897 126.339 16.5714 126.339 18.6H128.339ZM126.43 12.9183C125.114 11.5052 123.335 10.84 121.219 10.84V12.84C122.889 12.84 124.097 13.3481 124.967 14.2817L126.43 12.9183ZM121.219 10.84C119.072 10.84 117.261 11.5203 115.896 12.9491L117.342 14.3309C118.27 13.3597 119.525 12.84 121.219 12.84V10.84ZM115.888 12.9577C114.536 14.4055 113.939 16.4345 113.939 18.88H115.939C115.939 16.7388 116.461 15.2745 117.35 14.3223L115.888 12.9577ZM113.939 18.88V31H115.939V18.88H113.939ZM114.939 30H111.299V32H114.939V30ZM112.299 31V9.08H110.299V31H112.299ZM111.299 10.08H114.939V8.08H111.299V10.08ZM113.939 9.08V12.2H115.939V9.08H113.939ZM115.78 12.7408C116.4 11.7766 117.235 11.0299 118.306 10.4944L117.412 8.70557C116.029 9.39673 114.918 10.3834 114.098 11.6592L115.78 12.7408ZM118.298 10.4982C119.405 9.9565 120.627 9.68 121.979 9.68V7.68C120.344 7.68 118.819 8.01683 117.419 8.70178L118.298 10.4982ZM150.885 9.96L150.38 10.8232L150.387 10.8273L150.885 9.96ZM154.085 13.08L153.21 13.5641L155.085 13.08H154.085ZM154.085 9.08V8.08H153.085V9.08H154.085ZM157.765 9.08H158.765V8.08H157.765V9.08ZM156.485 36.8L155.609 36.3169L155.606 36.3232L156.485 36.8ZM152.805 40.48L152.323 39.6038L152.317 39.6072L152.805 40.48ZM140.085 39.76L139.507 40.576L139.507 40.576L140.085 39.76ZM136.685 34.2V33.2H135.526L135.695 34.3461L136.685 34.2ZM140.285 34.2L141.243 33.9127L141.029 33.2H140.285V34.2ZM142.765 37.4L143.315 36.5652L143.309 36.5611L143.303 36.5571L142.765 37.4ZM152.165 36.76L151.465 36.0455L151.458 36.0529L152.165 36.76ZM154.085 26.88H155.085V23.0625L153.213 26.3897L154.085 26.88ZM150.885 30.08L150.368 29.2239L150.885 30.08ZM140.605 29.92L140.084 30.7737L140.09 30.7775L140.605 29.92ZM136.885 25.88L137.771 25.4165L137.771 25.4165L136.885 25.88ZM136.885 14.08L137.765 14.5549L137.768 14.5492L136.885 14.08ZM140.605 10.12L140.101 9.2562L140.094 9.25994L140.605 10.12ZM150.365 12.88L149.853 13.7393L149.865 13.7464L149.877 13.7532L150.365 12.88ZM142.925 12.84L142.429 11.9718L142.429 11.9718L142.925 12.84ZM140.245 15.64L141.123 16.1175L141.123 16.1175L140.245 15.64ZM140.245 24.36L139.362 24.8296L139.366 24.8375L140.245 24.36ZM142.925 27.2L142.413 28.0593L142.421 28.0638L142.429 28.0682L142.925 27.2ZM150.365 27.2L150.861 28.0683L150.867 28.0645L150.365 27.2ZM153.085 24.36L153.963 24.8375L153.968 24.8296L153.085 24.36ZM145.925 9.72C147.669 9.72 149.142 10.0993 150.38 10.8232L151.39 9.09681C149.8 8.16735 147.967 7.72 145.925 7.72V9.72ZM150.387 10.8273C151.694 11.5777 152.618 12.4945 153.21 13.5641L154.96 12.5959C154.165 11.1588 152.955 9.99561 151.383 9.09275L150.387 10.8273ZM155.085 13.08V9.08H153.085V13.08H155.085ZM154.085 10.08H157.765V8.08H154.085V10.08ZM156.765 9.08V31.48H158.765V9.08H156.765ZM156.765 31.48C156.765 33.3337 156.371 34.9368 155.609 36.3169L157.36 37.2831C158.306 35.5698 158.765 33.6263 158.765 31.48H156.765ZM155.606 36.3232C154.846 37.7246 153.758 38.8142 152.323 39.6038L153.287 41.3562C155.051 40.3858 156.417 39.0221 157.364 37.2768L155.606 36.3232ZM152.317 39.6072C150.916 40.3907 149.249 40.8 147.285 40.8V42.8C149.533 42.8 151.547 42.3293 153.293 41.3528L152.317 39.6072ZM147.285 40.8C144.565 40.8 142.379 40.1597 140.663 38.944L139.507 40.576C141.63 42.0803 144.245 42.8 147.285 42.8V40.8ZM140.663 38.944C138.968 37.7432 137.981 36.133 137.674 34.0539L135.695 34.3461C136.082 36.9604 137.362 39.0568 139.507 40.576L140.663 38.944ZM136.685 35.2H140.285V33.2H136.685V35.2ZM139.327 34.4873C139.801 36.0666 140.786 37.3235 142.227 38.2429L143.303 36.5571C142.236 35.8765 141.569 35.0001 141.243 33.9127L139.327 34.4873ZM142.214 38.2348C143.657 39.1867 145.363 39.64 147.285 39.64V37.64C145.686 37.64 144.379 37.2666 143.315 36.5652L142.214 38.2348ZM147.285 39.64C149.513 39.64 151.406 38.9327 152.872 37.4671L151.458 36.0529C150.417 37.094 149.057 37.64 147.285 37.64V39.64ZM152.864 37.4745C154.384 35.9862 155.085 33.9403 155.085 31.48H153.085C153.085 33.5531 152.505 35.0271 151.465 36.0455L152.864 37.4745ZM155.085 31.48V26.88H153.085V31.48H155.085ZM153.213 26.3897C152.588 27.5013 151.652 28.4486 150.368 29.2239L151.402 30.9361C152.944 30.0048 154.141 28.8187 154.956 27.3703L153.213 26.3897ZM150.368 29.2239C149.132 29.9699 147.663 30.36 145.925 30.36V32.36C147.973 32.36 149.81 31.8967 151.402 30.9361L150.368 29.2239ZM145.925 30.36C144.151 30.36 142.557 29.9251 141.119 29.0625L140.09 30.7775C141.852 31.8349 143.805 32.36 145.925 32.36V30.36ZM141.126 29.0664C139.717 28.2067 138.599 26.9993 137.771 25.4165L135.999 26.3435C136.984 28.2273 138.346 29.7133 140.084 30.7736L141.126 29.0664ZM137.771 25.4165C136.948 23.8441 136.525 22.0334 136.525 19.96H134.525C134.525 22.3133 135.008 24.4493 135.999 26.3435L137.771 25.4165ZM136.525 19.96C136.525 17.857 136.949 16.0656 137.765 14.5549L136.005 13.6051C135.007 15.4544 134.525 17.583 134.525 19.96H136.525ZM137.768 14.5492C138.593 12.995 139.708 11.8144 141.115 10.9801L140.094 9.25994C138.354 10.2923 136.989 11.7517 136.002 13.6108L137.768 14.5492ZM141.109 10.9838C142.548 10.1443 144.146 9.72 145.925 9.72V7.72C143.81 7.72 141.862 8.22906 140.101 9.25622L141.109 10.9838ZM155.085 20C155.085 18.2106 154.723 16.6005 153.963 15.2025L152.206 16.1575C152.78 17.2128 153.085 18.4827 153.085 20H155.085ZM153.963 15.2025C153.212 13.8205 152.175 12.7449 150.852 12.0068L149.877 13.7532C150.848 14.2951 151.624 15.0861 152.206 16.1575L153.963 15.2025ZM150.876 12.0207C149.595 11.2579 148.177 10.88 146.645 10.88V12.88C147.833 12.88 148.895 13.1688 149.853 13.7393L150.876 12.0207ZM146.645 10.88C145.12 10.88 143.708 11.2407 142.429 11.9718L143.421 13.7082C144.381 13.1593 145.449 12.88 146.645 12.88V10.88ZM142.429 11.9718C141.134 12.7115 140.114 13.7865 139.366 15.1625L141.123 16.1175C141.709 15.0401 142.475 14.2485 143.421 13.7082L142.429 11.9718ZM139.366 15.1625C138.606 16.5605 138.245 18.1706 138.245 19.96H140.245C140.245 18.4427 140.55 17.1728 141.123 16.1175L139.366 15.1625ZM138.245 19.96C138.245 21.7738 138.605 23.4073 139.362 24.8296L141.128 23.8904C140.551 22.806 140.245 21.5062 140.245 19.96H138.245ZM139.366 24.8375C140.112 26.2105 141.128 27.2941 142.413 28.0593L143.436 26.3407C142.482 25.7725 141.71 24.9629 141.123 23.8825L139.366 24.8375ZM142.429 28.0682C143.708 28.7993 145.12 29.16 146.645 29.16V27.16C145.449 27.16 144.381 26.8807 143.421 26.3318L142.429 28.0682ZM146.645 29.16C148.169 29.16 149.581 28.7993 150.861 28.0682L149.869 26.3318C148.908 26.8807 147.84 27.16 146.645 27.16V29.16ZM150.867 28.0645C152.181 27.3008 153.214 26.2164 153.963 24.8375L152.206 23.8825C151.622 24.957 150.842 25.7659 149.862 26.3355L150.867 28.0645ZM153.968 24.8296C154.723 23.4096 155.085 21.79 155.085 20H153.085C153.085 21.5166 152.78 22.8038 152.202 23.8904L153.968 24.8296ZM196.06 3.12H197.06V2.12H196.06V3.12ZM196.06 31V32H197.06V31H196.06ZM192.42 31H191.42V32H192.42V31ZM192.42 18.36H193.42V17.36H192.42V18.36ZM178.22 18.36V17.36H177.22V18.36H178.22ZM178.22 31V32H179.22V31H178.22ZM174.58 31H173.58V32H174.58V31ZM174.58 3.12V2.12H173.58V3.12H174.58ZM178.22 3.12H179.22V2.12H178.22V3.12ZM178.22 15.36H177.22V16.36H178.22V15.36ZM192.42 15.36V16.36H193.42V15.36H192.42ZM192.42 3.12V2.12H191.42V3.12H192.42ZM195.06 3.12V31H197.06V3.12H195.06ZM196.06 30H192.42V32H196.06V30ZM193.42 31V18.36H191.42V31H193.42ZM192.42 17.36H178.22V19.36H192.42V17.36ZM177.22 18.36V31H179.22V18.36H177.22ZM178.22 30H174.58V32H178.22V30ZM175.58 31V3.12H173.58V31H175.58ZM174.58 4.12H178.22V2.12H174.58V4.12ZM177.22 3.12V15.36H179.22V3.12H177.22ZM178.22 16.36H192.42V14.36H178.22V16.36ZM193.42 15.36V3.12H191.42V15.36H193.42ZM192.42 4.12H196.06V2.12H192.42V4.12ZM221.715 9.08H222.715V8.08H221.715V9.08ZM221.715 31V32H222.715V31H221.715ZM218.075 31H217.075V32H218.075V31ZM218.075 27.76H219.075V24.2448L217.225 27.2336L218.075 27.76ZM215.155 30.4L215.603 31.2945L215.61 31.2906L215.155 30.4ZM206.475 30.28L206.007 31.1638L206.014 31.1674L206.021 31.1709L206.475 30.28ZM203.235 27.08L202.358 27.56L202.362 27.5663L202.365 27.5726L203.235 27.08ZM202.075 9.08V8.08H201.075V9.08H202.075ZM205.675 9.08H206.675V8.08H205.675V9.08ZM207.315 26.44L206.584 27.1218L206.592 27.1301L207.315 26.44ZM216.395 26.36L215.664 25.6777L215.664 25.6777L216.395 26.36ZM218.075 9.08V8.08H217.075V9.08H218.075ZM220.715 9.08V31H222.715V9.08H220.715ZM221.715 30H218.075V32H221.715V30ZM219.075 31V27.76H217.075V31H219.075ZM217.225 27.2336C216.634 28.1877 215.803 28.9465 214.701 29.5094L215.61 31.2906C217.014 30.5735 218.13 29.5723 218.926 28.2864L217.225 27.2336ZM214.708 29.5056C213.632 30.0435 212.427 30.32 211.075 30.32V32.32C212.71 32.32 214.225 31.9832 215.603 31.2944L214.708 29.5056ZM211.075 30.32C209.508 30.32 208.133 30.0026 206.93 29.3891L206.021 31.1709C207.538 31.9441 209.23 32.32 211.075 32.32V30.32ZM206.943 29.3962C205.761 28.7706 204.817 27.8443 204.106 26.5874L202.365 27.5726C203.254 29.1424 204.469 30.3494 206.007 31.1638L206.943 29.3962ZM204.113 26.6C203.438 25.3671 203.075 23.8214 203.075 21.92H201.075C201.075 24.072 201.486 25.9663 202.358 27.56L204.113 26.6ZM203.075 21.92V9.08H201.075V21.92H203.075ZM202.075 10.08H205.675V8.08H202.075V10.08ZM204.675 9.08V21.44H206.675V9.08H204.675ZM204.675 21.44C204.675 23.7636 205.265 25.7069 206.584 27.1217L208.047 25.7583C207.179 24.8264 206.675 23.4364 206.675 21.44H204.675ZM206.592 27.1301C207.91 28.5128 209.686 29.16 211.795 29.16V27.16C210.118 27.16 208.907 26.6605 208.039 25.7499L206.592 27.1301ZM211.795 29.16C213.963 29.16 215.782 28.4825 217.126 27.0423L215.664 25.6777C214.768 26.6375 213.521 27.16 211.795 27.16V29.16ZM217.126 27.0423C218.478 25.5945 219.075 23.5655 219.075 21.12H217.075C217.075 23.2612 216.553 24.7255 215.664 25.6777L217.126 27.0423ZM219.075 21.12V9.08H217.075V21.12H219.075ZM218.075 10.08H221.715V8.08H218.075V10.08ZM231.501 13.16H230.501V16.9256L232.369 13.6561L231.501 13.16ZM234.781 9.96L235.279 10.8273L235.279 10.8273L234.781 9.96ZM245.021 10.12L245.531 9.25994L245.531 9.25994L245.021 10.12ZM248.741 14.08L247.858 14.5492L247.861 14.5549L248.741 14.08ZM248.741 25.88L249.627 26.3435L249.627 26.3435L248.741 25.88ZM244.981 29.92L244.467 29.0625L244.46 29.0664L244.981 29.92ZM234.701 30.12L234.196 30.9832L234.203 30.9873L234.701 30.12ZM231.501 26.96L232.373 26.4697L230.501 23.1425V26.96H231.501ZM231.501 31V32H232.501V31H231.501ZM227.861 31H226.861V32H227.861V31ZM227.861 1.4V0.4H226.861V1.4H227.861ZM231.501 1.4H232.501V0.4H231.501V1.4ZM245.381 15.64L246.26 15.1625L246.26 15.1625L245.381 15.64ZM242.661 12.84L242.165 13.7083L242.174 13.7132L242.661 12.84ZM235.221 12.88L235.717 13.7483L235.724 13.7445L235.221 12.88ZM232.501 15.72L231.626 15.2359L231.623 15.2425L232.501 15.72ZM232.501 24.36L231.618 24.8296L231.624 24.8409L231.631 24.8521L232.501 24.36ZM235.221 27.2L234.71 28.0593L234.722 28.0664L234.734 28.0732L235.221 27.2ZM242.661 27.2L243.157 28.0683L243.164 28.0645L242.661 27.2ZM245.381 24.36L246.26 24.8375L246.264 24.8296L245.381 24.36ZM232.369 13.6561C233.019 12.5195 233.977 11.5748 235.279 10.8273L234.283 9.09275C232.705 9.99857 231.477 11.1871 230.633 12.6639L232.369 13.6561ZM235.279 10.8273C236.552 10.0967 238.017 9.72 239.701 9.72V7.72C237.706 7.72 235.891 8.16994 234.283 9.09275L235.279 10.8273ZM239.701 9.72C241.51 9.72 243.104 10.1455 244.511 10.9801L245.531 9.25994C243.792 8.22782 241.84 7.72 239.701 7.72V9.72ZM244.511 10.9801C245.918 11.8144 247.032 12.995 247.858 14.5492L249.624 13.6108C248.637 11.7517 247.272 10.2923 245.531 9.25994L244.511 10.9801ZM247.861 14.5549C248.677 16.0656 249.101 17.857 249.101 19.96H251.101C251.101 17.583 250.619 15.4544 249.621 13.6051L247.861 14.5549ZM249.101 19.96C249.101 22.0334 248.678 23.8441 247.855 25.4165L249.627 26.3435C250.618 24.4493 251.101 22.3133 251.101 19.96H249.101ZM247.855 25.4165C247.029 26.9951 245.901 28.2018 244.467 29.0625L245.496 30.7775C247.261 29.7182 248.64 28.2316 249.627 26.3435L247.855 25.4165ZM244.46 29.0664C243.053 29.9252 241.475 30.36 239.701 30.36V32.36C241.821 32.36 243.763 31.8348 245.502 30.7736L244.46 29.0664ZM239.701 30.36C237.958 30.36 236.467 29.9808 235.199 29.2527L234.203 30.9873C235.815 31.9125 237.658 32.36 239.701 32.36V30.36ZM235.206 29.2568C233.928 28.5092 232.996 27.5779 232.373 26.4697L230.63 27.4503C231.446 28.9021 232.648 30.0775 234.196 30.9832L235.206 29.2568ZM230.501 26.96V31H232.501V26.96H230.501ZM231.501 30H227.861V32H231.501V30ZM228.861 31V1.4H226.861V31H228.861ZM227.861 2.4H231.501V0.4H227.861V2.4ZM230.501 1.4V13.16H232.501V1.4H230.501ZM247.381 19.96C247.381 18.1706 247.02 16.5605 246.26 15.1625L244.503 16.1175C245.076 17.1728 245.381 18.4427 245.381 19.96H247.381ZM246.26 15.1625C245.509 13.7805 244.471 12.7049 243.149 11.9668L242.174 13.7132C243.145 14.2551 243.92 15.0461 244.503 16.1175L246.26 15.1625ZM243.157 11.9718C241.878 11.2407 240.465 10.88 238.941 10.88V12.88C240.137 12.88 241.205 13.1593 242.165 13.7082L243.157 11.9718ZM238.941 10.88C237.432 10.88 236.019 11.2596 234.719 12.0155L235.724 13.7445C236.717 13.1671 237.784 12.88 238.941 12.88V10.88ZM234.725 12.0118C233.429 12.7525 232.398 13.8405 231.626 15.2359L233.376 16.2041C233.991 15.0929 234.774 14.2875 235.717 13.7482L234.725 12.0118ZM231.623 15.2425C230.864 16.6382 230.501 18.2342 230.501 20H232.501C232.501 18.5125 232.805 17.2551 233.38 16.1975L231.623 15.2425ZM230.501 20C230.501 21.79 230.863 23.4096 231.618 24.8296L233.384 23.8904C232.806 22.8038 232.501 21.5166 232.501 20H230.501ZM231.631 24.8521C232.403 26.2176 233.428 27.2964 234.71 28.0593L235.733 26.3407C234.774 25.7703 233.987 24.9557 233.372 23.8679L231.631 24.8521ZM234.734 28.0732C236.032 28.7977 237.44 29.16 238.941 29.16V27.16C237.776 27.16 236.704 26.8823 235.709 26.3268L234.734 28.0732ZM238.941 29.16C240.465 29.16 241.878 28.7993 243.157 28.0682L242.165 26.3318C241.205 26.8807 240.137 27.16 238.941 27.16V29.16ZM243.164 28.0645C244.477 27.3008 245.511 26.2164 246.26 24.8375L244.503 23.8825C243.919 24.957 243.138 25.7659 242.159 26.3355L243.164 28.0645ZM246.264 24.8296C247.021 23.4073 247.381 21.7738 247.381 19.96H245.381C245.381 21.5062 245.075 22.806 244.498 23.8904L246.264 24.8296Z" fill="#FF0000"/>
</svg>
